<svg xmlns="http://www.w3.org/2000/svg" viewBox="0 0 900 580" width="900" height="580">
<style>text{font-family:Inter,system-ui,-apple-system,sans-serif}</style>
<rect width="900" height="580" fill="#F8FAFC"/>
<defs>
  <linearGradient id="gN" x1="0%" y1="0%" x2="100%" y2="100%"><stop offset="0%" stop-color="#0A2240"/><stop offset="100%" stop-color="#132E52"/></linearGradient>
  <linearGradient id="gB" x1="0%" y1="0%" x2="100%" y2="100%"><stop offset="0%" stop-color="#1565C0"/><stop offset="100%" stop-color="#1E88E5"/></linearGradient>
  <linearGradient id="gG" x1="0%" y1="0%" x2="100%" y2="100%"><stop offset="0%" stop-color="#C9A84C"/><stop offset="100%" stop-color="#E0C068"/></linearGradient>
  <linearGradient id="gR" x1="0%" y1="0%" x2="100%" y2="100%"><stop offset="0%" stop-color="#DC2626"/><stop offset="100%" stop-color="#EF4444"/></linearGradient>
  <linearGradient id="gGr" x1="0%" y1="0%" x2="100%" y2="100%"><stop offset="0%" stop-color="#059669"/><stop offset="100%" stop-color="#10B981"/></linearGradient>
  <linearGradient id="gP" x1="0%" y1="0%" x2="100%" y2="100%"><stop offset="0%" stop-color="#7C3AED"/><stop offset="100%" stop-color="#8B5CF6"/></linearGradient>
  <linearGradient id="gO" x1="0%" y1="0%" x2="100%" y2="100%"><stop offset="0%" stop-color="#EA580C"/><stop offset="100%" stop-color="#F97316"/></linearGradient>
  <linearGradient id="gC" x1="0%" y1="0%" x2="100%" y2="100%"><stop offset="0%" stop-color="#0891B2"/><stop offset="100%" stop-color="#06B6D4"/></linearGradient>
  <filter id="sh"><feDropShadow dx="0" dy="2" stdDeviation="3" flood-color="#000" flood-opacity="0.08"/></filter>
  <marker id="arr" viewBox="0 0 10 10" refX="9" refY="5" markerWidth="7" markerHeight="7" orient="auto"><path d="M0 0L10 5L0 10z" fill="#546E7A"/></marker>
</defs>
<rect width="900" height="48" fill="url(#gN)"/><text x="20" y="30" fill="white" font-size="15" font-weight="700">Aethon Aerospace</text><text x="880" y="30" text-anchor="end" fill="#C9A84C" font-size="11" font-weight="500">Organization Architecture — 24 Repositories / 5 Waves</text><rect x="20" y="60" width="860" height="70" rx="10" fill="#F1F5F9" stroke="#CBD5E1" stroke-dasharray="4,3"/><text x="30" y="76" fill="#475569" font-size="10" font-weight="600" letter-spacing="0.5">WAVE 1 — GOVERNANCE</text><rect x="40" y="82" width="155" height="35" rx="8" fill="#FFFFFF" filter="url(#sh)" stroke="#E2E8F0"/><rect x="40" y="82" width="155" height="28" rx="8" fill="url(#gN)"/><rect x="40" y="102" width="155" height="8" fill="url(#gN)"/><text x="117.5" y="101.0" text-anchor="middle" fill="white" font-size="11" font-weight="600">org-policies</text><rect x="210" y="82" width="155" height="35" rx="8" fill="#FFFFFF" filter="url(#sh)" stroke="#E2E8F0"/><rect x="210" y="82" width="155" height="28" rx="8" fill="url(#gN)"/><rect x="210" y="102" width="155" height="8" fill="url(#gN)"/><text x="287.5" y="101.0" text-anchor="middle" fill="white" font-size="11" font-weight="600">repo-templates</text><rect x="380" y="82" width="155" height="35" rx="8" fill="#FFFFFF" filter="url(#sh)" stroke="#E2E8F0"/><rect x="380" y="82" width="155" height="28" rx="8" fill="url(#gN)"/><rect x="380" y="102" width="155" height="8" fill="url(#gN)"/><text x="457.5" y="101.0" text-anchor="middle" fill="white" font-size="11" font-weight="600">engineering-handbook</text><rect x="550" y="82" width="155" height="35" rx="8" fill="#FFFFFF" filter="url(#sh)" stroke="#E2E8F0"/><rect x="550" y="82" width="155" height="28" rx="8" fill="url(#gN)"/><rect x="550" y="102" width="155" height="8" fill="url(#gN)"/><text x="627.5" y="101.0" text-anchor="middle" fill="white" font-size="11" font-weight="600">aethon-docs</text><rect x="720" y="82" width="155" height="35" rx="8" fill="#FFFFFF" filter="url(#sh)" stroke="#E2E8F0"/><rect x="720" y="82" width="155" height="28" rx="8" fill="url(#gR)"/><rect x="720" y="102" width="155" height="8" fill="url(#gR)"/><text x="797.5" y="101.0" text-anchor="middle" fill="white" font-size="11" font-weight="600">devsecops-platform</text><rect x="20" y="145" width="860" height="70" rx="10" fill="#F1F5F9" stroke="#CBD5E1" stroke-dasharray="4,3"/><text x="30" y="161" fill="#475569" font-size="10" font-weight="600" letter-spacing="0.5">WAVE 2 — AETHON-OS DIGITAL THREAD</text><rect x="40" y="167" width="155" height="35" rx="8" fill="#FFFFFF" filter="url(#sh)" stroke="#E2E8F0"/><rect x="40" y="167" width="155" height="28" rx="8" fill="url(#gB)"/><rect x="40" y="187" width="155" height="8" fill="url(#gB)"/><text x="117.5" y="186.0" text-anchor="middle" fill="white" font-size="11" font-weight="600">os-core</text><rect x="210" y="167" width="155" height="35" rx="8" fill="#FFFFFF" filter="url(#sh)" stroke="#E2E8F0"/><rect x="210" y="167" width="155" height="28" rx="8" fill="url(#gB)"/><rect x="210" y="187" width="155" height="8" fill="url(#gB)"/><text x="287.5" y="186.0" text-anchor="middle" fill="white" font-size="11" font-weight="600">os-data-platform</text><rect x="380" y="167" width="155" height="35" rx="8" fill="#FFFFFF" filter="url(#sh)" stroke="#E2E8F0"/><rect x="380" y="167" width="155" height="28" rx="8" fill="url(#gR)"/><rect x="380" y="187" width="155" height="8" fill="url(#gR)"/><text x="457.5" y="186.0" text-anchor="middle" fill="white" font-size="11" font-weight="600">os-cert-spine</text><rect x="550" y="167" width="155" height="35" rx="8" fill="#FFFFFF" filter="url(#sh)" stroke="#E2E8F0"/><rect x="550" y="167" width="155" height="28" rx="8" fill="url(#gB)"/><rect x="550" y="187" width="155" height="8" fill="url(#gB)"/><text x="627.5" y="186.0" text-anchor="middle" fill="white" font-size="11" font-weight="600">os-fleet-intel</text><rect x="720" y="167" width="155" height="35" rx="8" fill="#FFFFFF" filter="url(#sh)" stroke="#E2E8F0"/><rect x="720" y="167" width="155" height="28" rx="8" fill="url(#gB)"/><rect x="720" y="187" width="155" height="8" fill="url(#gB)"/><text x="797.5" y="186.0" text-anchor="middle" fill="white" font-size="11" font-weight="600">os-digital-mfg</text><rect x="20" y="230" width="860" height="70" rx="10" fill="#F1F5F9" stroke="#CBD5E1" stroke-dasharray="4,3"/><text x="30" y="246" fill="#475569" font-size="10" font-weight="600" letter-spacing="0.5">WAVE 3 — ENGINEERING TOOLING</text><rect x="30" y="252" width="130" height="35" rx="8" fill="#FFFFFF" filter="url(#sh)" stroke="#E2E8F0"/><rect x="30" y="252" width="130" height="28" rx="8" fill="url(#gC)"/><rect x="30" y="272" width="130" height="8" fill="url(#gC)"/><text x="95.0" y="271.0" text-anchor="middle" fill="white" font-size="11" font-weight="600">cfd-automation</text><rect x="172" y="252" width="130" height="35" rx="8" fill="#FFFFFF" filter="url(#sh)" stroke="#E2E8F0"/><rect x="172" y="252" width="130" height="28" rx="8" fill="url(#gGr)"/><rect x="172" y="272" width="130" height="8" fill="url(#gGr)"/><text x="237.0" y="271.0" text-anchor="middle" fill="white" font-size="11" font-weight="600">fea-automation</text><rect x="314" y="252" width="130" height="35" rx="8" fill="#FFFFFF" filter="url(#sh)" stroke="#E2E8F0"/><rect x="314" y="252" width="130" height="28" rx="8" fill="url(#gP)"/><rect x="314" y="272" width="130" height="8" fill="url(#gP)"/><text x="379.0" y="271.0" text-anchor="middle" fill="white" font-size="11" font-weight="600">mbse-tooling</text><rect x="456" y="252" width="130" height="35" rx="8" fill="#FFFFFF" filter="url(#sh)" stroke="#E2E8F0"/><rect x="456" y="252" width="130" height="28" rx="8" fill="url(#gC)"/><rect x="456" y="272" width="130" height="8" fill="url(#gC)"/><text x="521.0" y="271.0" text-anchor="middle" fill="white" font-size="11" font-weight="600">flight-sci-tools</text><rect x="598" y="252" width="130" height="35" rx="8" fill="#FFFFFF" filter="url(#sh)" stroke="#E2E8F0"/><rect x="598" y="252" width="130" height="28" rx="8" fill="url(#gO)"/><rect x="598" y="272" width="130" height="8" fill="url(#gO)"/><text x="663.0" y="271.0" text-anchor="middle" fill="white" font-size="11" font-weight="600">perf-trades</text><rect x="740" y="252" width="130" height="35" rx="8" fill="#FFFFFF" filter="url(#sh)" stroke="#E2E8F0"/><rect x="740" y="252" width="130" height="28" rx="8" fill="url(#gP)"/><rect x="740" y="272" width="130" height="8" fill="url(#gP)"/><text x="805.0" y="271.0" text-anchor="middle" fill="white" font-size="11" font-weight="600">req-traceability</text><rect x="20" y="315" width="860" height="70" rx="10" fill="#F1F5F9" stroke="#CBD5E1" stroke-dasharray="4,3"/><text x="30" y="331" fill="#475569" font-size="10" font-weight="600" letter-spacing="0.5">WAVE 4 — AIRCRAFT PROGRAMS</text><rect x="40" y="337" width="195" height="35" rx="8" fill="#FFFFFF" filter="url(#sh)" stroke="#E2E8F0"/><rect x="40" y="337" width="195" height="28" rx="8" fill="url(#gG)"/><rect x="40" y="357" width="195" height="8" fill="url(#gG)"/><text x="137.5" y="356.0" text-anchor="middle" fill="white" font-size="11" font-weight="600">aethon-c-program</text><rect x="255" y="337" width="195" height="35" rx="8" fill="#FFFFFF" filter="url(#sh)" stroke="#E2E8F0"/><rect x="255" y="337" width="195" height="28" rx="8" fill="url(#gG)"/><rect x="255" y="357" width="195" height="8" fill="url(#gG)"/><text x="352.5" y="356.0" text-anchor="middle" fill="white" font-size="11" font-weight="600">aethon-p-program</text><rect x="470" y="337" width="195" height="35" rx="8" fill="#FFFFFF" filter="url(#sh)" stroke="#E2E8F0"/><rect x="470" y="337" width="195" height="28" rx="8" fill="url(#gO)"/><rect x="470" y="357" width="195" height="8" fill="url(#gO)"/><text x="567.5" y="356.0" text-anchor="middle" fill="white" font-size="11" font-weight="600">aethon-x-program</text><rect x="685" y="337" width="195" height="35" rx="8" fill="#FFFFFF" filter="url(#sh)" stroke="#E2E8F0"/><rect x="685" y="337" width="195" height="28" rx="8" fill="url(#gC)"/><rect x="685" y="357" width="195" height="8" fill="url(#gC)"/><text x="782.5" y="356.0" text-anchor="middle" fill="white" font-size="11" font-weight="600">aethon-c-cfd</text><rect x="20" y="400" width="860" height="70" rx="10" fill="#F1F5F9" stroke="#CBD5E1" stroke-dasharray="4,3"/><text x="30" y="416" fill="#475569" font-size="10" font-weight="600" letter-spacing="0.5">WAVE 5 — QUALITY AND CERTIFICATION</text><rect x="40" y="422" width="195" height="35" rx="8" fill="#FFFFFF" filter="url(#sh)" stroke="#E2E8F0"/><rect x="40" y="422" width="195" height="28" rx="8" fill="url(#gGr)"/><rect x="40" y="442" width="195" height="8" fill="url(#gGr)"/><text x="137.5" y="441.0" text-anchor="middle" fill="white" font-size="11" font-weight="600">quality-systems</text><rect x="255" y="422" width="195" height="35" rx="8" fill="#FFFFFF" filter="url(#sh)" stroke="#E2E8F0"/><rect x="255" y="422" width="195" height="28" rx="8" fill="url(#gR)"/><rect x="255" y="442" width="195" height="8" fill="url(#gR)"/><text x="352.5" y="441.0" text-anchor="middle" fill="white" font-size="11" font-weight="600">cert-evidence-tools</text><rect x="470" y="422" width="195" height="35" rx="8" fill="#FFFFFF" filter="url(#sh)" stroke="#E2E8F0"/><rect x="470" y="422" width="195" height="28" rx="8" fill="url(#gO)"/><rect x="470" y="442" width="195" height="8" fill="url(#gO)"/><text x="567.5" y="441.0" text-anchor="middle" fill="white" font-size="11" font-weight="600">test-rig-software</text><rect x="685" y="422" width="195" height="35" rx="8" fill="#FFFFFF" filter="url(#sh)" stroke="#E2E8F0"/><rect x="685" y="422" width="195" height="28" rx="8" fill="url(#gP)"/><rect x="685" y="442" width="195" height="8" fill="url(#gP)"/><text x="782.5" y="441.0" text-anchor="middle" fill="white" font-size="11" font-weight="600">supplier-interface</text><line x1="450" y1="130" x2="450" y2="145" stroke="#546E7A" stroke-width="1.5" marker-end="url(#arr)"/><text x="450.0" y="132.5" text-anchor="middle" fill="#94A3B8" font-size="8">governs</text><line x1="450" y1="215" x2="450" y2="230" stroke="#546E7A" stroke-width="1.5" marker-end="url(#arr)"/><text x="450.0" y="217.5" text-anchor="middle" fill="#94A3B8" font-size="8">platform</text><line x1="450" y1="300" x2="450" y2="315" stroke="#546E7A" stroke-width="1.5" marker-end="url(#arr)"/><text x="450.0" y="302.5" text-anchor="middle" fill="#94A3B8" font-size="8">tools</text><line x1="450" y1="385" x2="450" y2="400" stroke="#546E7A" stroke-width="1.5" marker-end="url(#arr)"/><text x="450.0" y="387.5" text-anchor="middle" fill="#94A3B8" font-size="8">quality</text><rect x="20" y="485" width="860" height="35" rx="8" fill="#0A2240" opacity="0.05" stroke="#0A2240" stroke-opacity="0.2"/><text x="450" y="507" text-anchor="middle" fill="#0A2240" font-size="9" font-weight="500">24 Private Repos  |  14 Teams  |  3 Programs (C / P / X)  |  5 Aethon-OS Modules  |  Squash Merge  |  Branch Protection</text><line x1="20" y1="550" x2="880" y2="550" stroke="#E2E8F0"/><text x="450" y="568" text-anchor="middle" fill="#94A3B8" font-size="8">Aethon Aerospace</text>
</svg>